<svg width="286" height="156" viewBox="0 0 286 156" fill="none" xmlns="http://www.w3.org/2000/svg">
<path d="M86.7 50C85.1 39.1 74.4 27.1 55.5 23.3C39.4 19.9 23.4 21.1 8.80001 8.60001L8.70001 114C8.70001 120.5 13.4 126 20.9 126.9C29.1 127.9 42.9 129.4 51.5 131.1C59.7 132.6 65.8 137.2 67.2 147L79.8 147.1C81.5 135.3 94.6 129.1 118.3 122.3L118.4 122.2C103.5 122.2 80.4 124.8 73.6 140.3C69.3 128.3 58.9 125.9 46.5 123.5L26.5 120.3C21.1 119.5 16 116.5 15.9 110.8L16.3 21.8C30.6 28 43.9 26.8 57.2 30C73.7 33.3 84.6 42.9 84.8 55.2L84.9 78.7C86.1 65.2 87 59.3 90.6 52.9C96.4 42.9 111.2 27.3 150.5 22.9C132.1 22.1 100.7 23.3 86.7 50Z" fill="#0B2344"/>
<path d="M67 75.8H66.6C55.6 73.7 44.2 71.9 29 69.6C27.7 69.4 26.8 68.2 27 66.9C27.2 65.6 28.4 64.6 29.7 64.8C45 66.9 56.1 68.7 66.9 71C68.2 71.2 69.3 72.4 69 73.7C68.9 75 68 75.8 67 75.8Z" fill="#5B6B85"/>
<path d="M60.7 90.4L28.8 85C27.6 84.8 26.7 83.6 26.8 82.3C27 81.1 28.1 80.1 29.4 80.3L61.3 85.7C62.5 85.9 63.4 87.1 63.2 88.5C63 89.6 62 90.5 60.7 90.4Z" fill="#5B6B85"/>
<path d="M148.4 70.9C144.4 70.9 141.3 74 141.3 78.1V79.4L111.1 86.1C110.6 83.7 109.1 81.3 107 79.6L122.9 50C123.4 50.1 124 50.2 124.5 50.2C127.5 50.2 130.4 47.9 130.4 44.7C130.4 41.7 128 39.1 124.7 39.1C121.6 39 118.5 41.4 118.5 44.7C118.5 46.5 119.4 47.9 120.8 48.9L104.9 78.6C103.6 78.1 102.4 77.7 100.6 77.7C95.1 77.7 89.7 82 89.6 88.2C89.6 90.6 90.5 93 91.9 94.9C77.7 110.1 71.7 115.2 72.6 130.9C73.6 118 79.5 113.4 93.8 96.5C95.5 97.7 97.6 98.6 100.5 98.6C102.6 98.6 104.7 98 106.6 96.9L125.9 117.5C125.2 118.5 124.8 119.7 124.9 121C124.9 124.3 127.6 127.1 131.4 127.1C134.6 127.1 138.1 124.8 138.1 120.9C138.1 117.6 135.5 114.7 131.7 114.7C130.4 114.7 129.1 115.1 127.6 116L108.4 95.6C110.1 93.9 111.2 91.5 111.2 88.4L141.9 81.5C143.1 84.2 145.6 86.1 148.5 86.1C152.4 86.2 155.3 83.1 155.4 78.7C155.3 74.5 152.3 71.1 148.4 70.9ZM100.5 95.1C96.9 95.2 93.5 92.5 93.5 88.2C93.5 84.8 96.6 81.4 100.5 81.3C103.9 81.3 107.6 83.9 107.6 88.4C107.5 92 104.4 94.9 100.5 95.1Z" fill="url(#paint0_linear_2275_237)"/>
<path d="M213.667 64.476L193.348 84.4027V47.4893H183.679L183.548 108.119H192.76L193.152 107.792V97.796L199.816 90.936L216.215 108.119H229.477L206.676 84.4027L226.864 64.476H213.667Z" fill="#325BFF"/>
<path d="M254.827 64.5413C250.58 64.5413 246.725 65.5867 242.544 67.808V48.4693H232.744L232.417 48.8613V87.4733C232.417 90.4133 233.789 107.335 254.696 108.511C268.939 108.903 276.713 99.6253 276.713 86.4933C276.713 75.648 269.265 64.5413 254.827 64.5413ZM254.827 99.6253C248.359 99.6253 242.152 95.9013 242.152 86.232C242.152 79.4373 246.529 73.6227 254.827 73.4267C261.491 73.4267 267.567 77.1507 267.567 86.4933C267.567 93.7453 263.189 99.6253 254.827 99.6253Z" fill="#325BFF"/>
<defs>
<linearGradient id="paint0_linear_2275_237" x1="72.51" y1="84.15" x2="155.3" y2="84.15" gradientUnits="userSpaceOnUse">
<stop stop-color="#0066FF"/>
<stop offset="0.5246" stop-color="#4D55FF"/>
<stop offset="1" stop-color="#993BFF"/>
</linearGradient>
</defs>
</svg>
